<svg width="45" height="43" viewBox="0 0 45 43" fill="none" xmlns="http://www.w3.org/2000/svg">
<path d="M32.8125 11.646H32.8313M13.125 3.5835H31.875C37.0527 3.5835 41.25 7.59428 41.25 12.5418V30.4585C41.25 35.406 37.0527 39.4168 31.875 39.4168H13.125C7.94733 39.4168 3.75 35.406 3.75 30.4585V12.5418C3.75 7.59428 7.94733 3.5835 13.125 3.5835ZM30 20.3714C30.2314 21.8625 29.9649 23.3854 29.2383 24.7234C28.5117 26.0614 27.3622 27.1464 25.9531 27.8242C24.544 28.5019 22.9471 28.7378 21.3896 28.4983C19.8321 28.2588 18.3933 27.5561 17.2778 26.4902C16.1623 25.4243 15.427 24.0495 15.1764 22.5612C14.9258 21.0729 15.1726 19.5471 15.8819 18.2006C16.5911 16.8541 17.7266 15.7556 19.1268 15.0613C20.5271 14.3671 22.1208 14.1124 23.6813 14.3335C25.273 14.559 26.7466 15.2678 27.8844 16.355C29.0223 17.4423 29.764 18.8504 30 20.3714Z" stroke="white" stroke-width="2" stroke-linecap="round" stroke-linejoin="round"/>
</svg>
