<svg width="38" height="38" viewBox="0 0 38 38" fill="none" xmlns="http://www.w3.org/2000/svg">
<path d="M4.73735 25.8749C4.97017 26.4622 5.022 27.1057 4.88619 27.7227L3.19994 32.9318C3.1456 33.196 3.15965 33.4697 3.24075 33.7269C3.32184 33.9841 3.4673 34.2164 3.66333 34.4016C3.85935 34.5868 4.09944 34.7189 4.36084 34.7854C4.62223 34.8518 4.89626 34.8503 5.15694 34.7812L10.5609 33.201C11.1431 33.0855 11.746 33.136 12.3009 33.3467C15.682 34.9256 19.512 35.2597 23.1153 34.2899C26.7187 33.3201 29.8637 31.1089 31.9955 28.0463C34.1274 24.9836 35.109 21.2665 34.7673 17.5506C34.4256 13.8348 32.7825 10.359 30.1278 7.73656C27.4731 5.11413 23.9775 3.51356 20.2578 3.21725C16.538 2.92095 12.8332 3.94794 9.7968 6.11704C6.76046 8.28614 4.58778 11.4579 3.6621 15.0728C2.73642 18.6877 3.11724 22.5134 4.73735 25.8749Z" stroke="white" stroke-width="2" stroke-linecap="round" stroke-linejoin="round"/>
<g clip-path="url(#clip0_62_378)">
<path d="M19.9503 22.1163C20.1138 22.1913 20.298 22.2085 20.4726 22.1649C20.6471 22.1213 20.8016 22.0195 20.9106 21.8764L21.1916 21.5083C21.3391 21.3116 21.5304 21.152 21.7502 21.0421C21.9701 20.9321 22.2125 20.8749 22.4583 20.8749H24.8333C25.2532 20.8749 25.656 21.0417 25.9529 21.3387C26.2498 21.6356 26.4166 22.0383 26.4166 22.4583V24.8333C26.4166 25.2532 26.2498 25.6559 25.9529 25.9528C25.656 26.2498 25.2532 26.4166 24.8333 26.4166C21.054 26.4166 17.4294 24.9152 14.757 22.2429C12.0846 19.5705 10.5833 15.9459 10.5833 12.1666C10.5833 11.7467 10.7501 11.3439 11.0471 11.047C11.344 10.7501 11.7467 10.5833 12.1666 10.5833H14.5416C14.9616 10.5833 15.3643 10.7501 15.6612 11.047C15.9582 11.3439 16.125 11.7467 16.125 12.1666V14.5416C16.125 14.7874 16.0677 15.0298 15.9578 15.2497C15.8479 15.4695 15.6883 15.6608 15.4916 15.8083L15.1211 16.0861C14.9758 16.1971 14.8734 16.355 14.8312 16.5329C14.7891 16.7108 14.8098 16.8979 14.89 17.0623C15.9719 19.2598 17.7514 21.037 19.9503 22.1163Z" stroke="white" stroke-width="2" stroke-linecap="round" stroke-linejoin="round"/>
</g>
<defs>
<clipPath id="clip0_62_378">
<rect width="19" height="19" fill="white" transform="translate(9 9)"/>
</clipPath>
</defs>
</svg>
